PathFileType	4	(X/Y/Z)	/Users/itak/Documents/Research/Walk-IL/dataset/trc/00378_00012.trc
DataRate	CameraRate	NumFrames	NumMarkers	Units	OrigDataRate	OrigDataStartFrame	OrigNumFrames
100.000000	100.000000	4	54	mm	100.000000	86	346
Frame#	Time	RPSI			LPSI			L3			STRN			T10			C7			CLAV			RBAK			LBAK			LSHO			LUPA			LAEL			LAOL			LWTS			LWPS			LFRA			LIFD			LHPS			LHTS			RSHO			RUPA			RAEL			RAOL			RWTS			RWPS			RFRA			RIFD			RHTS			RHPS			RBHD			LFHD			RFHD			LBHD			RASI			LASI			LKNE			LTHI			LANK			LTIP			LTOE			LMT1			LMT5			LHEE			RKNE			RTHI			RANK			RTIP			RTOE			RMT1			RMT5			RHEE			LHIP			RHIP			*53			
		X1	Y1	Z1	X2	Y2	Z2	X3	Y3	Z3	X4	Y4	Z4	X5	Y5	Z5	X6	Y6	Z6	X7	Y7	Z7	X8	Y8	Z8	X9	Y9	Z9	X10	Y10	Z10	X11	Y11	Z11	X12	Y12	Z12	X13	Y13	Z13	X14	Y14	Z14	X15	Y15	Z15	X16	Y16	Z16	X17	Y17	Z17	X18	Y18	Z18	X19	Y19	Z19	X20	Y20	Z20	X21	Y21	Z21	X22	Y22	Z22	X23	Y23	Z23	X24	Y24	Z24	X25	Y25	Z25	X26	Y26	Z26	X27	Y27	Z27	X28	Y28	Z28	X29	Y29	Z29	X30	Y30	Z30	X31	Y31	Z31	X32	Y32	Z32	X33	Y33	Z33	X34	Y34	Z34	X35	Y35	Z35	X36	Y36	Z36	X37	Y37	Z37	X38	Y38	Z38	X39	Y39	Z39	X40	Y40	Z40	X41	Y41	Z41	X42	Y42	Z42	X43	Y43	Z43	X44	Y44	Z44	X45	Y45	Z45	X46	Y46	Z46	X47	Y47	Z47	X48	Y48	Z48	X49	Y49	Z49	X50	Y50	Z50	X51	Y51	Z51	X52	Y52	Z52	X53	Y53	Z53	X54	Y54	Z54	

87	0.86	-921.9989013671875	981.0394897460938	178.8223571777344	-924.9282836914062	979.3030395507812	45.91263580322266	-915.8291015625	1061.848876953125	112.9822082519531	-676.1956176757812	1209.815673828125	123.1003799438477	-916.4935302734375	1161.201782226562	102.3956527709961	-880.7877807617188	1410.166625976562	95.36940765380859	-728.0077514648438	1329.932373046875	118.0354232788086	-931.2423706054688	1264.438720703125	156.4870758056641	-885.6845703125	1374.4287109375	-9.130972862243652	-793.9247436523438	1389.795532226562	-48.43128204345703	-809.6187744140625	1276.214599609375	-124.5346908569336	-779.706787109375	1086.084716796875	-161.3457336425781	-835.6549072265625	1054.420532226562	-104.523307800293	-637.951171875	903.65576171875	-135.0069732666016	-682.9248657226562	881.5771484375	-199.9822845458984	-743.2840576171875	989.9867553710938	-179.8568420410156	-580.128662109375	735.5994262695312	-160.9049530029297	-641.6146850585938	805.9651489257812	-201.6528930664062	-590.9585571289062	821.23046875	-166.30712890625	-841.4609985351562	1388.2158203125	258.50634765625	-866.5272827148438	1325.996704101562	313.4232177734375	-900.3312377929688	1065.5498046875	345.7835083007812	-898.89208984375	1059.10009765625	249.4137268066406	-778.1083984375	848.6101684570312	357.3949890136719	-843.649658203125	834.076904296875	388.3732299804688	-887.5919799804688	998.04736328125	365.7915649414062	-776.8896484375	675.33203125	353.6575622558594	-770.5253295898438	743.0059204101562	381.6980285644531	-837.4440307617188	746.43017578125	388.2017822265625	-855.1976928710938	1593.355224609375	185.8801116943359	-704.6178588867188	1600.2578125	54.0394172668457	-723.2621459960938	1607.571533203125	175.9909820556641	-849.4998168945312	1581.370727539062	23.8702335357666	-707.591064453125	966.4345092773438	234.0338439941406	-722.587890625	957.5817260742188	-27.56543922424316	-794.9002075195312	466.8832702636719	-11.80974006652832	-799.9406127929688	609.3943481445312	-37.12374114990234	-932.2870483398438	43.47634506225586	42.43451309204102	-861.701416015625	239.3027038574219	6.162941932678223	-727.5905151367188	45.59392166137695	134.0859222412109	-809.781005859375	47.94707870483398	151.9283752441406	-805.9859619140625	40.85601425170898	46.97967147827148	-975.0311889648438	45.21152496337891	94.03976440429688	-641.56494140625	499.60888671875	259.53125	-708.1676635742188	747.2279663085938	288.4000854492188	-879.7013549804688	137.8475189208984	266.6105041503906	-678.2694091796875	378.8702392578125	254.6907958984375	-737.504638671875	52.12715148925781	191.4223175048828	-802.7015991210938	85.76405334472656	167.4100799560547	-814.2984619140625	83.20619964599609	267.9909057617188	-950.4564819335938	166.4292755126953	216.5862426757812	-835.1217041015625	967.0302734375	-67.42571258544922	-841.1030883789062	955.0330200195312	288.0372924804688	nan	nan	nan	
88	0.87	-911.3818969726562	980.6710815429688	180.0579986572266	-914.9171752929688	978.7206420898438	47.27587127685547	-905.875244140625	1061.8134765625	114.040397644043	-665.9618530273438	1209.663940429688	122.7165298461914	-906.8788452148438	1161.271728515625	102.1177749633789	-870.4640502929688	1409.979614257812	95.40616607666016	-717.7999267578125	1329.78125	117.9038543701172	-921.033203125	1264.181762695312	156.0880737304688	-875.3704833984375	1374.52099609375	-9.120664596557617	-783.5845336914062	1390.103271484375	-48.33163070678711	-798.425048828125	1276.60009765625	-124.8117752075195	-765.7035522460938	1087.066162109375	-161.6899719238281	-820.9834594726562	1054.259643554688	-104.8974304199219	-618.3433837890625	910.131103515625	-136.2921295166016	-662.7447509765625	886.4073486328125	-201.0369720458984	-726.978759765625	992.5615844726562	-180.4330902099609	-553.8340454101562	744.6763305664062	-162.8200988769531	-618.4265747070312	812.4807739257812	-203.0630493164062	-568.2415771484375	829.7599487304688	-167.9976959228516	-831.1734008789062	1387.668090820312	258.5162658691406	-856.452392578125	1325.526733398438	313.1849060058594	-891.4352416992188	1065.2216796875	344.9593811035156	-889.0875244140625	1058.791625976562	248.7547149658203	-771.0825805664062	847.2146606445312	357.9866638183594	-837.1187744140625	833.3380737304688	388.197021484375	-879.382568359375	997.7246704101562	365.1221618652344	-771.5039672851562	673.9900512695312	354.0130310058594	-764.8330688476562	741.485107421875	382.23681640625	-831.7134399414062	745.625	388.0427551269531	-843.6362915039062	1593.276000976562	186.4246215820312	-692.776611328125	1599.437622070312	54.91337203979492	-711.6097412109375	1606.449462890625	176.8658294677734	-837.7869873046875	1581.80517578125	24.40370941162109	-696.5049438476562	966.9855346679688	233.5160064697266	-712.927490234375	957.0267333984375	-27.95468711853027	-792.7005004882812	466.4724426269531	-12.46668243408203	-795.4547729492188	609.1705322265625	-37.19488143920898	-932.19580078125	43.72969055175781	42.6761360168457	-860.9942016601562	239.3471527099609	5.896008968353271	-727.4901123046875	45.54526519775391	133.9580078125	-809.456787109375	48.3458366394043	151.6241455078125	-805.95703125	40.8309211730957	46.96402359008789	-975.0790405273438	45.77129745483398	94.18683624267578	-622.1892700195312	503.2583923339844	258.1620788574219	-693.4841918945312	750.1654663085938	288.3104248046875	-842.5781860351562	129.8572235107422	264.8733520507812	-654.2850341796875	380.6527404785156	253.5766296386719	-694.1080932617188	52.46481323242188	192.8472290039062	-761.1652221679688	81.52322387695312	167.21044921875	-773.7312622070312	79.74800109863281	267.8141174316406	-914.4050903320312	153.6426239013672	213.6416015625	-826.2340698242188	966.1022338867188	-67.08958435058594	-830.7719116210938	954.9156494140625	287.4381103515625	nan	nan	nan	
89	0.88	-900.6502685546875	979.972900390625	181.3451232910156	-904.8157348632812	977.8917846679688	48.69266128540039	-895.7833862304688	1061.479736328125	115.1371765136719	-655.6736450195312	1209.155029296875	122.3350372314453	-897.3740234375	1161.038208007812	101.9227066040039	-860.0765991210938	1409.497314453125	95.50247955322266	-707.513671875	1329.265258789062	117.7732009887695	-910.7162475585938	1263.63134765625	155.7957153320312	-865.0528564453125	1374.29833984375	-9.048985481262207	-773.2616577148438	1390.0498046875	-48.22662353515625	-787.2838134765625	1276.598388671875	-125.035774230957	-751.7615966796875	1087.66943359375	-161.9559936523438	-806.3616333007812	1053.73486328125	-105.1850738525391	-599.0955810546875	916.478271484375	-137.4915313720703	-642.9534912109375	891.0267333984375	-201.9361572265625	-710.8724365234375	994.8319702148438	-180.8749694824219	-527.8922119140625	753.8912963867188	-164.4920959472656	-595.6390380859375	818.9036254882812	-204.2425994873047	-545.9107666015625	838.2750244140625	-169.5740966796875	-820.7391357421875	1386.800537109375	258.5724792480469	-846.210693359375	1324.721069335938	313.0021057128906	-882.4074096679688	1064.579467773438	344.2257995605469	-879.2593383789062	1058.158081054688	248.1836700439453	-763.9328002929688	845.5375366210938	358.4866333007812	-830.391845703125	832.3094482421875	388.0278015136719	-871.0200805664062	997.0943603515625	364.5325317382812	-765.9754638671875	672.3713989257812	354.1703796386719	-758.9639282226562	739.6880493164062	382.5861511230469	-825.7816772460938	744.5327758789062	387.8287353515625	-832.0162963867188	1592.825927734375	187.0187225341797	-680.9656372070312	1598.352661132812	55.75417709350586	-699.9178466796875	1605.04833984375	177.7137603759766	-826.0811767578125	1581.885131835938	24.9846248626709	-685.3632202148438	967.1583862304688	233.0388946533203	-703.2423095703125	956.257080078125	-28.29854965209961	-790.3612060546875	466.0511779785156	-13.16984272003174	-790.9052124023438	608.8907470703125	-37.33076858520508	-932.1682739257812	44.03374862670898	42.93873596191406	-860.2474365234375	239.3905792236328	5.603899002075195	-727.3307495117188	45.53047180175781	133.7858428955078	-809.1197509765625	48.72906875610352	151.4450225830078	-805.9190673828125	40.80086898803711	46.94510650634766	-975.0811767578125	46.34592819213867	94.39964294433594	-603.7623901367188	506.3173522949219	256.9967041015625	-679.0343017578125	752.5932006835938	288.1002197265625	-804.7171020507812	121.5805282592773	262.8822021484375	-630.805419921875	382.0130004882812	252.5916595458984	-650.7102661132812	53.07411956787109	193.5686645507812	-719.219970703125	77.57845306396484	166.5273284912109	-732.8268432617188	76.13170623779297	267.1365661621094	-877.3248291015625	140.6312866210938	210.6205444335938	-817.1600952148438	964.9746704101562	-66.73111724853516	-820.0484008789062	954.4630737304688	287.1666870117188	nan	nan	nan	
90	0.89	-889.7891845703125	978.9562377929688	182.6731414794922	-894.6102294921875	976.8424072265625	50.15334320068359	-885.542236328125	1060.826049804688	116.2621841430664	-645.322265625	1208.290405273438	121.9554138183594	-887.9774780273438	1160.478515625	101.8816909790039	-849.6078491210938	1408.713256835938	95.66904449462891	-697.1417236328125	1328.385498046875	117.6514739990234	-900.2885131835938	1262.7841796875	155.6161651611328	-854.7275390625	1373.751098632812	-8.908257484436035	-762.9560546875	1389.630737304688	-48.11403656005859	-776.2006225585938	1276.200805664062	-125.1953048706055	-737.8775634765625	1087.889282226562	-162.1445617675781	-791.8285522460938	1052.841186523438	-105.3957138061523	-580.2114868164062	922.6503295898438	-138.5755310058594	-623.5459594726562	895.3997802734375	-202.6841735839844	-694.9442138671875	996.77099609375	-181.1881256103516	-502.3756408691406	763.1718139648438	-165.9315032958984	-573.269287109375	825.1946411132812	-205.2046356201172	-524.0025024414062	846.71044921875	-171.0206146240234	-810.1603393554688	1385.608642578125	258.6767883300781	-835.8045654296875	1323.57763671875	312.8773193359375	-873.2548217773438	1063.616943359375	343.5702514648438	-869.3920288085938	1057.197875976562	247.6911926269531	-756.6508178710938	843.5800170898438	358.8800659179688	-823.4546508789062	830.9878540039062	387.8614807128906	-862.5034790039062	996.1436767578125	364.0129699707031	-760.2716064453125	670.4721069335938	354.1719970703125	-752.8903198242188	737.62890625	382.7737121582031	-819.6326904296875	743.1555786132812	387.5769653320312	-820.3417358398438	1592.000366210938	187.6605377197266	-669.1851806640625	1597.002197265625	56.55758666992188	-688.1875	1603.368408203125	178.5313873291016	-814.3902587890625	1581.602905273438	25.60730934143066	-674.1553344726562	966.9511108398438	232.5899963378906	-693.5241088867188	955.2598876953125	-28.60980987548828	-787.8753051757812	465.6049499511719	-13.92594432830811	-786.26416015625	608.5460205078125	-37.5465202331543	-932.196533203125	44.38056182861328	43.2371940612793	-859.4486083984375	239.4216613769531	5.292893409729004	-727.1123046875	45.55434036254883	133.5590972900391	-808.8343505859375	49.03437042236328	151.4229888916016	-805.877197265625	40.76794815063477	46.92201232910156	-975.0445556640625	46.93513107299805	94.69184112548828	-586.3223266601562	508.6912841796875	256.0641479492188	-664.8495483398438	754.4539184570312	287.7444152832031	-766.098388671875	113.1753540039062	260.6440734863281	-607.8162231445312	382.9314270019531	251.7273406982422	-607.404296875	54.01543045043945	193.4671783447266	-676.9744873046875	74.05216979980469	165.3258209228516	-691.5592041015625	72.45220947265625	265.9051818847656	-839.24072265625	127.6194839477539	207.6060943603516	-807.8829956054688	963.6641845703125	-66.36651611328125	-808.6761474609375	953.8115234375	287.4643859863281	nan	nan	nan	
